<?xml version="1.0" encoding="utf-8"?>
<!-- Generator: Adobe Illustrator 24.0.2, SVG Export Plug-In . SVG Version: 6.00 Build 0)  -->
<svg version="1.1" id="Laag_1" xmlns="http://www.w3.org/2000/svg" xmlns:xlink="http://www.w3.org/1999/xlink" x="0px" y="0px"
	 viewBox="0 0 246.47 296.28" style="enable-background:new 0 0 246.47 296.28;" xml:space="preserve">
<style type="text/css">
	.st0{fill:#10485B;}
	.st1{fill:#006454;}
	.st2{font-family:'HeroNew-Light';}
	.st3{font-size:12px;}
	.st4{fill:#BFE2E0;}
	.st5{fill:#F08361;}
	.st6{fill:#EA5B0C;}
	.st7{fill:#FFCA00;}
	.st8{fill:#E63312;}
	.st9{fill:#C6B607;}
	.st10{fill:#ED6B06;}
</style>
<g>
	<polygon class="st0" points="84.75,238.12 71.38,194.21 79.06,194.21 88.85,227.81 89.11,227.81 98.9,194.21 106,194.21 
		92.63,238.12 	"/>
	<polygon class="st0" points="111.5,238.12 111.5,194.21 118.86,194.21 118.86,216.93 135.44,194.21 143.57,194.21 130.51,212.01 
		144.02,238.12 135.76,238.12 125.78,217.89 118.86,226.09 118.86,238.12 	"/>
	<g>
		<path class="st0" d="M149.65,238.12v-43.9h18.11c2.26,0,4.28,0.46,6.05,1.38c1.77,0.92,3.16,2.18,4.16,3.78
			c1,1.6,1.5,3.49,1.5,5.66c0,2.52-0.65,4.65-1.95,6.4c-1.3,1.75-2.89,2.97-4.77,3.65v0.26c2.18,0.68,4.01,1.99,5.5,3.94
			c1.49,1.94,2.24,4.32,2.24,7.14c0,2.48-0.59,4.59-1.76,6.34c-1.17,1.75-2.72,3.08-4.64,4c-1.92,0.92-4.03,1.38-6.34,1.38H149.65z
			 M156.95,212.39h8.77c2.01,0,3.55-0.6,4.64-1.79c1.09-1.19,1.63-2.58,1.63-4.16c0-1.88-0.54-3.3-1.63-4.26
			c-1.09-0.96-2.51-1.44-4.26-1.44h-9.15V212.39z M156.95,231.59h9.66c1.83,0,3.36-0.53,4.58-1.6c1.22-1.07,1.82-2.58,1.82-4.54
			c0-1.79-0.58-3.33-1.73-4.61c-1.15-1.28-2.84-1.92-5.06-1.92h-9.28V231.59z"/>
	</g>
	<text transform="matrix(1 0 0 1 126.1935 239.2779)" class="st1 st2 st3"> </text>
	<g>
		<path class="st0" d="M59.16,259.44l-4.4-4.65v4.65h-1.14v-13.41h1.14v8.58l4.23-4.18h1.55l-4.38,4.27l4.54,4.74H59.16z"/>
		<path class="st0" d="M70.07,255.36h-6.87c0.18,1.96,1.46,3.19,3.31,3.19c1.04,0,2.13-0.39,3.11-1.28v1.28
			c-0.92,0.72-1.98,1.08-3.16,1.08c-2.67,0-4.4-1.85-4.4-4.65c0-2.94,2.02-4.72,4.27-4.72c2.08,0,3.78,1.55,3.78,4.5
			C70.1,254.99,70.08,255.17,70.07,255.36z M68.99,254.36c-0.05-2.12-1.34-3.06-2.69-3.06c-1.53,0-2.89,1.18-3.09,3.06H68.99z"/>
		<path class="st0" d="M73.22,250.43h0.91l0.13,1.46h0.02c0.62-1.19,1.81-1.56,2.62-1.56c0.22,0,0.4,0.02,0.57,0.03v1.11
			c-0.18-0.03-0.39-0.05-0.59-0.05c-1.24,0-2.52,0.82-2.52,2.62v5.39h-1.14V250.43z"/>
		<path class="st0" d="M85.59,259.44l-4.4-4.65v4.65h-1.14v-13.41h1.14v8.58l4.23-4.18h1.55l-4.38,4.27l4.54,4.74H85.59z"/>
		<path class="st0" d="M89.54,250.43h0.91l0.13,1.46h0.02c0.62-1.19,1.81-1.56,2.62-1.56c0.22,0,0.4,0.02,0.57,0.03v1.11
			c-0.18-0.03-0.39-0.05-0.59-0.05c-1.24,0-2.52,0.82-2.52,2.62v5.39h-1.14V250.43z"/>
		<path class="st0" d="M103.43,255.36h-6.87c0.18,1.96,1.46,3.19,3.31,3.19c1.04,0,2.13-0.39,3.11-1.28v1.28
			c-0.92,0.72-1.98,1.08-3.16,1.08c-2.67,0-4.4-1.85-4.4-4.65c0-2.94,2.02-4.72,4.27-4.72c2.08,0,3.78,1.55,3.78,4.5
			C103.46,254.99,103.45,255.17,103.43,255.36z M102.35,254.36c-0.05-2.12-1.34-3.06-2.69-3.06c-1.53,0-2.89,1.18-3.09,3.06H102.35z
			"/>
		<path class="st0" d="M113.68,253.49v5.95h-1.14v-5.46c0-1.76-0.81-2.6-2.32-2.6c-1.39,0-2.49,1.04-2.49,2.5v5.56h-1.14v-9h0.87
			l0.15,1.39h0.03c0.5-0.84,1.5-1.58,2.79-1.58C112.38,250.25,113.68,251.52,113.68,253.49z"/>
		<path class="st0" d="M118.72,250.43h2.64v1.03h-2.64v4.91c0,1.51,0.86,2.13,2.05,2.13c0.25,0,0.52-0.03,0.81-0.08v1.02
			c-0.1,0.02-0.49,0.08-0.96,0.08c-1.78,0-3.04-1.08-3.04-3.11v-4.96h-1.36v-1.03h1.39v-2.12h1.11V250.43z"/>
		<path class="st0" d="M135.63,253.41v6.03h-1.14v-5.9c0-1.39-0.57-2.17-1.9-2.17c-1.31,0-2.08,1.08-2.08,2.22v5.85h-1.14v-5.9
			c0-1.39-0.57-2.17-1.88-2.17c-1.36,0-2.08,1.13-2.08,2.3v5.76h-1.14v-9h0.87l0.15,1.36h0.03c0.44-0.89,1.29-1.55,2.39-1.55
			c1.29,0,2.08,0.57,2.5,1.6c0.5-0.96,1.36-1.6,2.59-1.6C134.76,250.25,135.63,251.56,135.63,253.41z"/>
		<path class="st0" d="M146.74,255.36h-6.87c0.18,1.96,1.46,3.19,3.31,3.19c1.04,0,2.13-0.39,3.11-1.28v1.28
			c-0.92,0.72-1.98,1.08-3.16,1.08c-2.67,0-4.4-1.85-4.4-4.65c0-2.94,2.02-4.72,4.27-4.72c2.08,0,3.78,1.55,3.78,4.5
			C146.77,254.99,146.76,255.17,146.74,255.36z M145.66,254.36c-0.05-2.12-1.34-3.06-2.69-3.06c-1.53,0-2.89,1.18-3.09,3.06H145.66z
			"/>
		<path class="st0" d="M157.32,255.36h-6.87c0.18,1.96,1.46,3.19,3.31,3.19c1.04,0,2.13-0.39,3.11-1.28v1.28
			c-0.92,0.72-1.98,1.08-3.16,1.08c-2.67,0-4.4-1.85-4.4-4.65c0-2.94,2.02-4.72,4.27-4.72c2.08,0,3.78,1.55,3.78,4.5
			C157.36,254.99,157.34,255.17,157.32,255.36z M156.25,254.36c-0.05-2.12-1.34-3.06-2.69-3.06c-1.53,0-2.89,1.18-3.09,3.06H156.25z
			"/>
		<path class="st0" d="M165.79,251.04v1.26c-0.64-0.57-1.6-0.97-2.67-0.97c-1.24,0-1.95,0.57-1.95,1.39c0,0.94,0.86,1.24,2.15,1.65
			c1.34,0.42,2.92,0.84,2.92,2.64c0,1.6-1.24,2.62-3.21,2.62c-1.11,0-2.22-0.34-3.07-1.06v-1.36c0.69,0.74,1.76,1.34,3.06,1.34
			c1.33,0,2.1-0.64,2.1-1.53c0-1.01-0.92-1.33-2.27-1.75c-1.51-0.47-2.82-0.91-2.82-2.47c0-1.48,1.21-2.55,3.11-2.55
			C164.14,250.25,165.17,250.55,165.79,251.04z"/>
		<path class="st0" d="M170.81,250.43h2.64v1.03h-2.64v4.91c0,1.51,0.86,2.13,2.05,2.13c0.25,0,0.52-0.03,0.81-0.08v1.02
			c-0.1,0.02-0.49,0.08-0.96,0.08c-1.78,0-3.04-1.08-3.04-3.11v-4.96h-1.36v-1.03h1.39v-2.12h1.11V250.43z"/>
		<path class="st0" d="M183.68,255.36h-6.87c0.18,1.96,1.46,3.19,3.31,3.19c1.04,0,2.13-0.39,3.11-1.28v1.28
			c-0.92,0.72-1.98,1.08-3.16,1.08c-2.67,0-4.4-1.85-4.4-4.65c0-2.94,2.02-4.72,4.27-4.72c2.08,0,3.78,1.55,3.78,4.5
			C183.71,254.99,183.7,255.17,183.68,255.36z M182.61,254.36c-0.05-2.12-1.34-3.06-2.69-3.06c-1.53,0-2.89,1.18-3.09,3.06H182.61z"
			/>
		<path class="st0" d="M186.84,250.43h0.91l0.13,1.46h0.02c0.62-1.19,1.81-1.56,2.62-1.56c0.22,0,0.4,0.02,0.57,0.03v1.11
			c-0.19-0.03-0.39-0.05-0.59-0.05c-1.24,0-2.52,0.82-2.52,2.62v5.39h-1.14V250.43z"/>
		<path class="st0" d="M198.85,251.04v1.26c-0.64-0.57-1.6-0.97-2.67-0.97c-1.24,0-1.95,0.57-1.95,1.39c0,0.94,0.86,1.24,2.15,1.65
			c1.34,0.42,2.92,0.84,2.92,2.64c0,1.6-1.24,2.62-3.21,2.62c-1.11,0-2.22-0.34-3.07-1.06v-1.36c0.69,0.74,1.76,1.34,3.06,1.34
			c1.33,0,2.1-0.64,2.1-1.53c0-1.01-0.92-1.33-2.27-1.75c-1.51-0.47-2.82-0.91-2.82-2.47c0-1.48,1.21-2.55,3.11-2.55
			C197.21,250.25,198.23,250.55,198.85,251.04z"/>
	</g>
	<g>
		<path class="st0" d="M184.87,184.82H61.65V61.61h123.21V184.82z M68.65,177.82h109.21V68.61H68.65V177.82z"/>
		<path class="st4" d="M61.65,143.34c-5.03-0.02-10.06-0.04-15.09-0.06c-0.65,0-0.65,0-0.66,0.52c-0.02,1.12-0.03,2.24-0.05,3.36
			c0,0.16-0.04,0.32-0.06,0.48v4.53h1.44c0.04,0.68,0.1,1.34,0.11,2c0.05,5.55,0.1,11.1,0.13,16.66h14.19V143.34z"/>
		<polygon class="st5" points="201.54,170.83 201.74,151.06 193.55,151.45 193.55,145.94 200.09,142.24 199.75,139.8 184.87,142.71 
			184.87,170.83 		"/>
		<polygon class="st6" points="137.44,151.98 167.51,146.1 158.35,137.93 151.04,137.93 150.95,134.02 153.04,133.93 150.26,130.71 
			150.26,122.45 151.82,122.45 149.38,119.58 143.73,95.4 139.25,119.62 136.34,122.54 137.86,122.54 137.86,131.37 135.21,134.02 
			137.12,134.02 137.12,140.72 132.99,144.56 132.99,147.4 		"/>
		<path class="st4" d="M85.04,160.14l12.95-13.53v-13.53l0.78-0.91c-1.8-1.4-3.61-2.8-5.4-4.2c-0.14-0.11-0.24-0.32-0.25-0.48
			c-0.04-1.13-0.06-2.26-0.08-3.39h-0.19c-0.03,1.14-0.06,2.29-0.07,3.43c0,0.25-0.1,0.41-0.32,0.58
			c-4.11,3.06-8.22,6.13-12.33,9.19c-0.12,0.09-0.24,0.18-0.42,0.32c0.89,0.04,1.68,0.08,2.5,0.12v5.68c-0.18,0-0.36,0-0.53,0
			c-2.84-0.01-5.67-0.02-6.01-0.03v27.44h9.39V160.14z"/>
		<polygon class="st5" points="167.51,146.1 137.44,151.98 146.89,161.73 146.89,170.83 171.74,170.83 170.86,170.83 170.86,145.46 
					"/>
		<g>
			<g>
				<path class="st7" d="M106.01,137.74c-0.03,0.05-0.05,0.1-0.08,0.15h-2.69c0.06,1.94,0.11,3.79,0.17,5.68h10.44v0.44
					c0,2.23,0.01,4.45-0.01,6.68c0,0.29,0.11,0.45,0.42,0.59c0.69,0.3,1.37,0.63,2.05,0.96c1.81,0.88,3.62,1.77,5.43,2.66v0.23
					h-1.98c0,2.11-0.02,13.23-0.02,13.37c0,0.54,0,1.47,0,2.34h6.86v-18.45l-1.91-0.09l8.3-7.72v-11.49l-17.26-20.7l-16.96,19.79
					c2.16,1.68,4.32,3.36,6.49,5.04C105.49,137.39,105.75,137.56,106.01,137.74"/>
			</g>
		</g>
		<polygon class="st8" points="126.6,152.37 126.6,170.83 133.94,170.83 131.52,153.14 137.44,151.98 132.99,147.4 132.99,144.56 
			124.68,152.29 		"/>
		<path class="st9" d="M119.76,155.12h1.98v-0.23c-1.81-0.89-3.62-1.78-5.43-2.66c-0.67-0.33-1.35-0.66-2.05-0.96
			c-0.32-0.14-0.43-0.29-0.42-0.59c0.02-2.23,0.01-4.45,0.01-6.68v-0.44h-10.44c-0.06-1.89-0.11-3.74-0.17-5.68h2.69
			c0.02-0.05,0.05-0.1,0.08-0.15c-0.25-0.18-0.51-0.35-0.76-0.54c-2.16-1.68-4.32-3.36-6.49-5.04l-0.78,0.91v13.53l-12.95,13.53
			v10.69h34.7C119.74,170.3,119.76,155.96,119.76,155.12"/>
		<polygon class="st10" points="133.94,170.83 146.89,170.83 146.89,161.73 137.44,151.98 131.52,153.14 		"/>
	</g>
</g>
</svg>
